<?xml version="1.0" encoding="iso-8859-1"?>
<!-- Generator: Adobe Illustrator 16.0.0, SVG Export Plug-In . SVG Version: 6.00 Build 0)  -->
<!DOCTYPE svg PUBLIC "-//W3C//DTD SVG 1.1//EN" "http://www.w3.org/Graphics/SVG/1.1/DTD/svg11.dtd">
<svg xmlns="http://www.w3.org/2000/svg" xmlns:xlink="http://www.w3.org/1999/xlink" version="1.1" id="Capa_1" x="0px" y="0px" width="512px" height="512px" viewBox="0 0 36.762 36.762" style="enable-background:new 0 0 36.762 36.762;" xml:space="preserve">
<g>
	<path d="M14.594,6.61h0.289c0.011,1.977,1.304,3.731,2.402,4.872c-0.941,0.964-2.019,2.376-2.316,3.989h-0.375v1.148h8.419v-1.148   h-0.376c-0.298-1.613-1.374-3.025-2.315-3.989c1.101-1.141,2.394-2.896,2.402-4.872h0.289V5.463h-8.419V6.61z M21.5,7.781   c-0.367,1.177-1.197,2.232-1.922,2.982l-0.695,0.723l0.701,0.718c0.772,0.792,1.746,2.015,2.023,3.383H16   c0.277-1.368,1.25-2.591,2.023-3.383l0.701-0.718l-0.695-0.723c-0.293-0.304-0.601-0.661-0.893-1.054   C19.045,9.432,20.627,8.721,21.5,7.781z M29.422,4.48c-2.06-2.299-4.78-4.433-11.505-4.48c-2.627-0.021-6.639,0.601-9.76,3.901   c-1.889,1.993-3.279,4.511-2.883,8.627c0.086,0.893,1.361,1.926,0.465,3.65c0,0-1.925,3.387-1.857,3.951c0,0-0.034,1.03,1.56,1.062   c0,0,0.397,0.052,0.283,0.93l-0.019,1.28c0,0,0.051,0.381,0.748,0.612c0,0,0.133,0.133-0.066,0.384c0,0-0.366,0.409,0.266,1.294   c0.234,0.322,0.614,0.729,0.383,1.562c0,0-0.3,1.607,0.331,1.992c0,0,0.718,0.852,3.603,0.495c1.01-0.124,2.873-0.612,3.984,0.782   c0,0,2.654,5.045,2.856,6.238c0,0,4.53-8.066,10.061-9.312c0,0-1.349-3.038,1.393-6.973c0,0,3.436-4.532,3.537-7.022   C32.799,13.456,33.708,9.26,29.422,4.48z M24.047,5.462v1.147v1.032h-0.39c-0.276,1.497-1.1,2.818-1.946,3.837   c0.668,0.795,1.342,1.808,1.725,2.96h0.611v1.032v1.148v1.033h-1.033h-8.419h-1.033v-1.033v-1.147v-1.032h0.611   c0.381-1.152,1.056-2.165,1.724-2.96c-0.849-1.019-1.669-2.34-1.947-3.837h-0.388V6.61V5.463V4.43h1.033h8.419h1.033V5.462   L24.047,5.462z" fill="#FFFFFF"/>
</g>
<g>
</g>
<g>
</g>
<g>
</g>
<g>
</g>
<g>
</g>
<g>
</g>
<g>
</g>
<g>
</g>
<g>
</g>
<g>
</g>
<g>
</g>
<g>
</g>
<g>
</g>
<g>
</g>
<g>
</g>
</svg>
