<?xml version="1.0" encoding="iso-8859-1"?>
<!-- Generator: Adobe Illustrator 19.0.0, SVG Export Plug-In . SVG Version: 6.00 Build 0)  -->
<svg xmlns="http://www.w3.org/2000/svg" xmlns:xlink="http://www.w3.org/1999/xlink" version="1.1" id="Layer_1" x="0px" y="0px" viewBox="0 0 512 512" style="enable-background:new 0 0 512 512;" xml:space="preserve" width="512px" height="512px">
<g>
	<g>
		<path d="M407.024,0H104.976C83.43,0,65.901,17.529,65.901,39.075V406.53c0,4.199,3.405,7.604,7.604,7.604s7.604-3.405,7.604-7.604    V39.075c0-13.161,10.706-23.867,23.867-23.867h302.048c13.16,0,23.867,10.706,23.867,23.867v433.851    c0,13.16-10.707,23.866-23.867,23.866H104.976c-13.161,0-23.867-10.706-23.867-23.867v-41.049c0-4.199-3.405-7.604-7.604-7.604    s-7.604,3.405-7.604,7.604v41.049c0,21.547,17.529,39.075,39.075,39.075h302.048c21.546,0,39.075-17.529,39.075-39.075V39.075    C446.099,17.529,428.569,0,407.024,0z" fill="#FFFFFF"/>
	</g>
</g>
<g>
	<g>
		<path d="M405.038,73.999c4.199,0,7.604-3.405,7.604-7.604V41.334c0-4.199-3.405-7.604-7.604-7.604H106.962    c-4.199,0-7.604,3.405-7.604,7.604v298.075c0,4.199,3.405,7.604,7.604,7.604h298.075c4.199,0,7.604-3.405,7.604-7.604V91.741    c0-4.199-3.405-7.604-7.604-7.604c-4.199,0-7.604,3.405-7.604,7.604v240.064H114.566V48.938h282.867v17.457    C397.434,70.594,400.838,73.999,405.038,73.999z" fill="#FFFFFF"/>
	</g>
</g>
<g>
	<g>
		<path d="M405.038,372.36h-83.644c-4.199,0-7.604,3.405-7.604,7.604c0,4.199,3.405,7.604,7.604,7.604h83.644    c4.199,0,7.604-3.405,7.604-7.604C412.642,375.764,409.237,372.36,405.038,372.36z" fill="#FFFFFF"/>
	</g>
</g>
<g>
	<g>
		<path d="M296.048,372.36H106.962c-4.199,0-7.604,3.405-7.604,7.604c0,4.199,3.405,7.604,7.604,7.604h189.085    c4.199,0,7.604-3.405,7.604-7.604C303.651,375.764,300.247,372.36,296.048,372.36z" fill="#FFFFFF"/>
	</g>
</g>
<g>
	<g>
		<path d="M405.038,450.797h-55.255c-4.199,0-7.604,3.405-7.604,7.604c0,4.199,3.405,7.604,7.604,7.604h55.255    c4.199,0,7.604-3.405,7.604-7.604C412.642,454.202,409.237,450.797,405.038,450.797z" fill="#FFFFFF"/>
	</g>
</g>
<g>
	<g>
		<path d="M324.436,450.797H106.962c-4.199,0-7.604,3.405-7.604,7.604c0,4.199,3.405,7.604,7.604,7.604h217.473    c4.199,0,7.604-3.405,7.604-7.604C332.04,454.202,328.635,450.797,324.436,450.797z" fill="#FFFFFF"/>
	</g>
</g>
<g>
	<g>
		<path d="M405.038,411.579h-185.03c-4.199,0-7.604,3.405-7.604,7.604s3.405,7.604,7.604,7.604h185.03    c4.199,0,7.604-3.405,7.604-7.604S409.237,411.579,405.038,411.579z" fill="#FFFFFF"/>
	</g>
</g>
<g>
	<g>
		<path d="M194.661,411.579h-87.699c-4.199,0-7.604,3.405-7.604,7.604s3.405,7.604,7.604,7.604h87.699    c4.199,0,7.604-3.405,7.604-7.604S198.861,411.579,194.661,411.579z" fill="#FFFFFF"/>
	</g>
</g>
<g>
	<g>
		<path d="M255.132,84.975c-13.498,0-24.478,10.981-24.478,24.479c-0.001,13.498,10.98,24.478,24.478,24.478    s24.479-10.981,24.479-24.478C279.611,95.956,268.63,84.975,255.132,84.975z M255.132,118.723c-5.112,0-9.27-4.159-9.27-9.27    c-0.001-5.112,4.158-9.271,9.27-9.271s9.271,4.159,9.271,9.271S260.244,118.723,255.132,118.723z" fill="#FFFFFF"/>
	</g>
</g>
<g>
	<g>
		<path d="M297.165,252.24c20.797-13.709,34.557-37.263,34.557-63.983v-18.537c0.533,0.116,1.07,0.173,1.602,0.173    c2.897,0,5.664-1.665,6.935-4.477c1.729-3.827,0.026-8.331-3.801-10.06c-1.621-0.732-3.249-1.441-4.885-2.126    c-0.094-0.471-0.234-0.926-0.411-1.361v-39.898c0-16.596-10.556-31.336-26.268-36.682L257.58,59.195    c-1.587-0.539-3.31-0.539-4.897,0l-47.314,16.094c-15.712,5.344-26.268,20.086-26.268,36.682v39.901    c-0.175,0.434-0.315,0.885-0.409,1.355c-1.636,0.686-3.265,1.395-4.887,2.127c-3.827,1.729-5.53,6.231-3.801,10.06    c1.504,3.331,5.107,5.048,8.539,4.302v18.539c0,26.719,13.759,50.273,34.554,63.984c-28.236,8.06-48.976,34.078-48.976,64.866    c0,4.199,3.405,7.604,7.604,7.604s7.604-3.405,7.604-7.604c0-20.904,12.343-38.971,30.119-47.319l40.825,33.906    c1.408,1.17,3.133,1.754,4.858,1.754c1.726,0,3.45-0.585,4.858-1.754l40.825-33.906c17.777,8.348,30.12,26.415,30.12,47.32    c0,4.199,3.405,7.604,7.604,7.604s7.604-3.405,7.604-7.604C346.143,286.316,325.403,260.298,297.165,252.24z M194.308,111.971    c0.001-10.081,6.414-19.036,15.958-22.283l44.865-15.262l44.866,15.262c9.544,3.246,15.957,12.202,15.957,22.284v35.477    c-39.523-12.783-82.124-12.783-121.647,0V111.971z M193.751,188.256v-24.564c39.673-14.175,83.091-14.175,122.763,0v24.563    c0,33.85-27.538,61.387-61.387,61.387C221.284,249.643,193.751,222.105,193.751,188.256z M255.132,287.957l-27.614-22.932    c1.343-0.103,2.696-0.173,4.065-0.173h47.099c1.369,0,2.721,0.069,4.064,0.173L255.132,287.957z" fill="#FFFFFF"/>
	</g>
</g>
<g>
</g>
<g>
</g>
<g>
</g>
<g>
</g>
<g>
</g>
<g>
</g>
<g>
</g>
<g>
</g>
<g>
</g>
<g>
</g>
<g>
</g>
<g>
</g>
<g>
</g>
<g>
</g>
<g>
</g>
</svg>
